<?xml version="1.0" standalone="no"?><!DOCTYPE svg PUBLIC "-//W3C//DTD SVG 1.1//EN" "http://www.w3.org/Graphics/SVG/1.1/DTD/svg11.dtd"><svg t="1719559677079" class="icon" viewBox="0 0 1024 1024" version="1.1" xmlns="http://www.w3.org/2000/svg" p-id="4766" width="64" height="64" xmlns:xlink="http://www.w3.org/1999/xlink"><path d="M511.52 928c-10.112 0-18.816-2.24-28.224-7.328l-316.64-182.208a53.024 53.024 0 0 1-26.4-46.016V329.76c0-18.528 10.368-36.352 27.04-46.464l316.704-180.384c7.712-4.416 17.696-6.912 27.52-6.912 9.696 0 19.232 2.464 28.288 7.328l316.64 181.312c16.736 9.248 27.328 27.232 27.328 46.048v362.624c0 18.848-10.304 36.128-27.552 46.24l-317.12 181.568c-8.032 4.576-17.28 6.88-27.584 6.88z" fill="#DCEFFF" p-id="4767"></path><path d="M511.52 128c4.16 0 8.416 1.088 12.576 3.232l317.28 181.664a20.544 20.544 0 0 1 10.336 17.824v362.624a21.824 21.824 0 0 1-11.168 18.304l-317.504 181.792a23.36 23.36 0 0 1-11.52 2.56 24.64 24.64 0 0 1-12.448-3.2l-316-181.856a20.864 20.864 0 0 1-10.816-18.592V329.76c0-7.264 4.256-14.368 11.136-18.784l316.64-180.384A25.472 25.472 0 0 1 511.52 128m0-64c-14.784 0-30.432 3.68-43.328 11.104L150.72 255.936c-25.856 15.68-42.432 43.36-42.432 73.824v362.656c0 30.432 15.68 58.08 42.432 73.824l317.472 182.688c13.824 7.392 27.648 11.072 43.328 11.072 15.68 0 30.496-3.68 43.36-11.136l317.44-181.76c26.752-15.68 43.36-43.328 43.36-73.856v-362.56c0-30.464-16.64-59.072-43.36-73.856l-317.44-181.76A91.68 91.68 0 0 0 511.52 64z" fill="#67B9FF" p-id="4768"></path><path d="M376.224 293.504l158.4 158.368-45.216 45.248-158.4-158.368z" fill="#67B9FF" p-id="4769"></path><path d="M376.224 293.504l158.4 158.368-45.216 45.248-158.4-158.368z" fill="#67B9FF" p-id="4770"></path><path d="M647.744 293.504l45.28 45.248-158.4 158.4-45.248-45.28z" fill="#67B9FF" p-id="4771"></path><path d="M347.776 442.496h320v64h-320zM347.776 570.496h320v64h-320z" fill="#67B9FF" p-id="4772"></path><path d="M475.776 474.496h64v256h-64z" fill="#67B9FF" p-id="4773"></path></svg>