<?xml version="1.0" standalone="no"?><!DOCTYPE svg PUBLIC "-//W3C//DTD SVG 1.1//EN" "http://www.w3.org/Graphics/SVG/1.1/DTD/svg11.dtd"><svg t="1663164140709" class="icon" viewBox="0 0 1024 1024" version="1.1" xmlns="http://www.w3.org/2000/svg" p-id="3339" xmlns:xlink="http://www.w3.org/1999/xlink" width="200" height="200"><path d="M512 0a372.736 372.736 0 0 0-358.4 385.024c0 204.8 324.608 614.4 338.432 629.248a25.6 25.6 0 0 0 39.936 0C545.792 997.376 870.4 590.336 870.4 385.024A372.736 372.736 0 0 0 512 0z m0 956.928c-71.168-92.672-307.2-409.6-307.2-571.904A321.536 321.536 0 0 1 512 51.2a321.536 321.536 0 0 1 307.2 333.824c0 160.256-236.032 479.232-307.2 571.904z" p-id="3340"></path><path d="M512 268.8A140.8 140.8 0 1 0 652.8 409.6 140.8 140.8 0 0 0 512 268.8z m0 230.4A89.6 89.6 0 1 1 601.6 409.6 89.6 89.6 0 0 1 512 499.2z" p-id="3341"></path></svg>